<?xml version="1.0" standalone="no"?>
<!DOCTYPE svg PUBLIC "-//W3C//DTD SVG 20010904//EN"
 "http://www.w3.org/TR/2001/REC-SVG-20010904/DTD/svg10.dtd">
<svg version="1.0" xmlns="http://www.w3.org/2000/svg"
 width="1551.000000pt" height="1551.000000pt" viewBox="0 0 1551.000000 1551.000000"
 preserveAspectRatio="xMidYMid meet">
<metadata>
Created by potrace 1.14, written by Peter Selinger 2001-2017
</metadata>
<g transform="translate(0.000000,1551.000000) scale(0.100000,-0.100000)"
fill="#000000" stroke="none">
<path d="M8842 15493 c-51 -7 -119 -25 -150 -39 -71 -32 -173 -51 -290 -53
-50 -1 -99 -3 -109 -5 -10 -2 -39 -6 -65 -10 -25 -4 -181 -52 -345 -107 -411
-138 -464 -151 -598 -154 -118 -2 -151 -11 -255 -70 -30 -18 -109 -60 -175
-95 -66 -34 -124 -66 -130 -70 -5 -4 -98 -53 -205 -107 -107 -55 -240 -124
-295 -153 -55 -29 -152 -79 -215 -112 -283 -148 -351 -184 -435 -228 -49 -26
-144 -76 -210 -110 -217 -113 -236 -124 -282 -165 -26 -22 -68 -58 -93 -80
-26 -22 -75 -65 -110 -95 -92 -80 -106 -90 -124 -90 -42 0 -115 -46 -212 -135
-6 -5 -28 -23 -50 -40 -21 -16 -65 -53 -98 -80 -118 -99 -232 -192 -280 -231
-28 -21 -61 -49 -75 -62 -13 -12 -46 -39 -73 -60 -27 -20 -67 -65 -90 -100
-49 -76 -67 -89 -133 -97 -27 -4 -58 -8 -67 -11 -21 -6 -46 -59 -93 -189 -44
-125 -60 -146 -120 -163 l-48 -14 7 -51 c3 -29 8 -61 11 -72 5 -16 -5 -26 -42
-50 -62 -38 -95 -68 -279 -251 -170 -169 -208 -220 -254 -347 -19 -51 -38 -86
-44 -83 -6 3 -35 13 -64 22 -51 17 -53 17 -67 -2 -31 -45 -92 -114 -189 -214
-253 -262 -366 -421 -414 -585 -28 -93 -70 -261 -77 -305 -3 -19 -8 -42 -10
-50 -2 -8 -7 -37 -11 -65 -19 -154 -56 -303 -94 -380 -22 -44 -43 -100 -46
-125 -3 -25 -8 -56 -10 -70 -3 -14 -7 -117 -10 -230 -3 -113 -7 -211 -9 -217
-3 -7 -18 -13 -34 -13 -40 0 -58 -20 -56 -67 1 -47 11 -64 30 -56 29 11 14
-32 -18 -52 -39 -24 -45 -56 -23 -123 8 -26 17 -74 21 -107 3 -33 8 -67 11
-76 2 -9 6 -51 8 -93 4 -69 2 -79 -20 -105 -35 -41 -60 -45 -74 -11 -6 15 -9
42 -7 58 6 35 -33 97 -79 127 -15 9 -39 45 -56 82 -33 73 -34 70 41 109 48 25
50 29 40 75 -11 47 -17 94 -18 131 -1 24 -3 26 -30 18 -15 -4 -38 -13 -50 -20
-13 -6 -24 -10 -26 -8 -2 2 -6 39 -10 83 -7 81 -26 152 -52 192 -18 28 -12 39
27 46 31 7 50 36 50 78 0 16 -7 19 -50 19 l-50 0 0 -55 c0 -30 -2 -55 -4 -55
-2 0 -17 7 -32 15 -16 8 -34 15 -40 15 -12 0 -64 -90 -64 -110 0 -8 13 -34 29
-59 45 -71 47 -86 12 -101 -56 -23 -63 -38 -44 -103 14 -50 14 -68 3 -140 -23
-153 -24 -191 -2 -233 24 -48 35 -94 24 -94 -5 0 -21 17 -36 39 -29 41 -62 62
-86 52 -47 -18 -80 -61 -80 -102 0 -30 -7 -21 -13 17 -3 18 -19 81 -37 142
-26 87 -36 109 -48 104 -10 -3 -13 -1 -8 6 3 6 2 13 -4 17 -5 3 -10 0 -10 -9
0 -8 -16 -20 -35 -26 -40 -13 -53 -33 -61 -87 -4 -34 0 -44 38 -90 24 -28 51
-63 60 -76 12 -17 32 -27 64 -33 l47 -9 1 -60 1 -59 -70 -1 -70 0 -39 -69
c-48 -83 -49 -108 -7 -200 41 -88 59 -168 67 -292 8 -114 21 -148 69 -171 31
-15 36 -15 59 0 14 10 30 35 37 58 9 27 26 52 52 73 74 59 87 74 87 106 0 28
2 30 39 30 l38 0 13 -62 c6 -35 16 -76 21 -93 5 -16 11 -48 15 -70 8 -57 36
-117 76 -161 32 -35 58 -75 58 -87 0 -3 -24 -8 -52 -12 -66 -9 -84 -13 -110
-21 -16 -5 -239 -144 -257 -160 -8 -7 22 -162 44 -227 13 -37 50 -107 82 -155
83 -123 83 -125 76 -249 -11 -211 -5 -313 27 -415 26 -84 69 -134 144 -168
l61 -27 66 -134 c70 -140 75 -152 83 -209 l5 -35 -47 0 -47 0 2 -47 c3 -55 27
-108 48 -108 8 0 24 -9 36 -21 19 -19 20 -29 15 -97 -3 -43 -10 -94 -15 -115
-10 -42 -3 -82 27 -151 22 -49 21 -66 -2 -66 -26 0 -59 -49 -61 -90 -2 -56 14
-152 30 -168 6 -7 31 -14 55 -15 40 -2 44 -5 56 -40 16 -45 6 -48 -18 -7 -14
24 -24 30 -51 30 -85 0 -134 -48 -154 -150 -11 -54 -10 -203 2 -239 3 -11 8
-30 10 -43 2 -13 35 -83 72 -157 81 -161 153 -244 283 -330 171 -113 177 -116
344 -127 143 -10 312 -85 421 -189 82 -78 140 -118 204 -141 120 -43 149 -63
238 -165 47 -54 89 -99 92 -99 3 0 23 -16 43 -35 l37 -34 -20 -40 c-10 -22
-23 -43 -29 -46 -5 -3 -10 -19 -10 -34 0 -22 19 -46 94 -117 104 -99 114 -115
146 -228 34 -123 93 -200 214 -280 58 -38 73 -43 173 -50 83 -7 127 -31 214
-121 40 -41 79 -75 85 -75 6 0 34 7 62 16 l50 16 43 -30 c24 -17 112 -85 194
-151 158 -126 256 -189 346 -221 31 -10 89 -39 129 -64 41 -25 78 -46 83 -46
5 0 35 -26 66 -58 45 -47 67 -61 116 -75 102 -31 143 -51 158 -77 36 -61 67
-73 143 -59 122 24 209 -3 216 -66 4 -35 16 -37 98 -18 52 11 56 11 73 -8 9
-12 17 -29 17 -39 0 -15 5 -16 47 -9 26 5 52 14 57 19 15 15 72 12 86 -5 8
-10 10 -30 5 -63 l-6 -49 86 -6 c141 -10 204 -56 236 -171 l10 -35 63 2 c39 1
69 -3 78 -11 8 -7 43 -67 77 -135 33 -67 73 -137 88 -155 26 -31 30 -32 61
-21 17 6 30 15 27 19 -8 13 27 17 60 8 56 -17 63 -17 79 1 9 10 19 36 22 58
l5 40 -43 8 c-24 4 -56 9 -73 11 -37 6 -76 33 -86 61 -7 20 -5 21 39 18 61 -3
72 2 72 34 0 40 21 62 62 66 29 3 38 -1 48 -20 7 -13 31 -37 54 -54 51 -39 72
-69 57 -84 -17 -17 -13 -33 12 -44 217 -104 322 -161 387 -214 41 -33 88 -63
104 -66 29 -6 62 -51 116 -155 l25 -48 -27 -25 c-45 -42 -44 -59 7 -107 51
-47 101 -78 126 -78 21 0 33 61 25 122 -6 44 -35 151 -55 201 -15 40 -14 54 3
37 17 -18 91 -200 101 -250 3 -19 14 -59 23 -87 17 -59 18 -59 107 -29 26 9
67 19 90 22 l41 6 13 -42 c17 -56 92 -220 101 -220 4 0 29 7 56 15 27 8 73 15
101 15 75 0 98 24 89 94 -9 65 -53 232 -73 269 -8 16 -13 37 -11 47 3 16 10
14 76 -19 52 -26 98 -60 160 -121 133 -130 181 -169 218 -176 44 -8 64 8 64
52 0 39 -40 150 -75 211 -14 23 -25 48 -25 55 0 13 69 -60 70 -75 0 -10 67
-105 94 -135 31 -35 137 -91 182 -98 44 -6 73 10 78 41 3 19 -28 88 -59 130
-18 26 -7 44 29 47 l29 3 -7 100 c-7 125 -29 199 -99 345 -64 131 -64 133 -71
293 -3 65 -8 122 -11 127 -2 4 20 24 50 44 37 24 57 45 61 63 11 45 25 58 41
37 17 -23 173 -32 173 -10 0 19 -27 45 -57 57 -36 13 -27 25 20 25 64 1 173
13 199 23 13 5 25 9 28 9 3 0 24 5 46 11 52 14 134 29 134 25 0 -1 -14 -18
-30 -36 -38 -41 -38 -52 1 -68 45 -19 91 -15 111 11 24 29 23 46 -8 74 l-27
25 74 1 c41 1 88 2 104 3 17 1 54 -6 83 -16 70 -23 92 -19 302 57 96 34 233
79 303 99 165 46 255 88 361 170 104 79 167 116 391 231 237 122 291 154 445
269 74 55 137 103 140 106 3 3 52 43 110 90 139 112 122 94 245 270 l109 155
0 69 c1 64 -1 70 -27 89 -30 24 -100 27 -137 7 -12 -6 -24 -9 -27 -6 -18 18
26 249 60 311 36 69 61 86 178 126 121 41 150 62 250 175 122 140 123 141 238
259 104 107 227 250 306 355 27 36 52 67 55 70 35 32 177 316 164 329 -5 6
-68 -21 -79 -34 -5 -6 -30 -25 -55 -42 -55 -38 -75 -57 -120 -113 -82 -102
-226 -278 -255 -309 -63 -70 -75 -82 -75 -76 0 14 213 302 240 325 28 24 150
198 204 293 74 128 132 198 194 237 68 43 80 69 84 200 4 100 9 124 34 185 42
98 107 192 231 336 58 68 113 140 121 159 19 45 24 240 7 246 -12 5 -121 -17
-159 -32 -18 -7 -19 -3 -13 62 9 89 9 87 63 304 25 102 57 246 70 320 21 119
31 168 49 245 2 12 19 61 36 110 41 115 45 236 11 329 -19 52 -20 62 -8 91 62
148 61 358 -3 591 -10 40 -6 116 12 204 22 103 15 230 -18 360 -15 58 -29 130
-31 160 -18 227 -28 272 -96 445 -22 55 -53 138 -69 185 l-28 85 -44 3 -44 3
3 -90 c2 -67 10 -111 33 -178 26 -77 40 -130 57 -208 14 -69 35 -187 39 -230
3 -27 8 -68 11 -90 8 -53 12 -93 19 -190 4 -44 8 -96 10 -115 16 -144 22 -757
10 -950 -11 -188 -16 -247 -30 -350 -48 -355 -200 -895 -374 -1327 -85 -214
-312 -690 -351 -738 -4 -5 -23 -37 -41 -70 -139 -256 -382 -611 -513 -749
-105 -110 -496 -514 -581 -600 -211 -212 -516 -444 -770 -586 -33 -18 -76 -42
-95 -53 -46 -26 -308 -157 -314 -157 -2 0 -33 -13 -68 -29 -289 -133 -834
-318 -1050 -356 -15 -3 -59 -12 -97 -20 -76 -16 -357 -61 -436 -70 -27 -3 -61
-8 -75 -10 -14 -2 -45 -6 -70 -10 -69 -9 -111 -14 -160 -21 -92 -12 -164 -21
-260 -29 -58 -5 -392 -6 -445 -1 -22 2 -76 7 -120 11 -101 10 -118 11 -180 19
-45 6 -71 10 -140 21 -11 2 -38 6 -60 10 -55 8 -299 52 -417 75 -54 11 -113
22 -131 25 -211 36 -820 245 -1121 384 -49 22 -125 52 -169 66 -48 16 -107 44
-148 73 -124 84 -135 90 -197 87 -31 -1 -73 -5 -92 -9 -35 -7 -36 -7 -66 51
-38 71 -87 110 -191 152 -167 69 -186 82 -323 220 -174 176 -238 220 -361 247
-67 16 -70 18 -88 58 -36 77 -95 132 -203 187 -91 47 -156 97 -280 215 -15 14
-40 58 -55 97 -15 40 -54 107 -85 149 -63 85 -99 151 -154 284 -61 148 -119
257 -202 381 -115 169 -287 518 -313 632 -6 25 -13 63 -15 85 -3 21 -23 86
-46 145 -22 58 -52 147 -67 196 -15 50 -42 122 -59 160 -17 39 -36 93 -43 120
-7 28 -37 106 -66 175 -69 160 -130 379 -148 530 -3 25 -7 56 -10 70 -3 14 -7
45 -9 70 -2 25 -7 81 -11 125 -4 44 -9 175 -10 290 -1 116 -5 233 -9 260 -24
185 -31 290 -30 470 2 330 2 429 0 515 -3 113 14 209 63 360 23 68 41 131 41
139 0 8 4 28 10 45 5 17 19 65 31 106 46 158 91 244 234 449 52 75 92 174 129
326 30 120 36 134 102 235 24 38 72 133 105 212 133 313 229 448 464 656 33
29 168 160 300 290 311 306 473 451 671 599 16 12 49 36 74 55 128 96 400 278
415 278 3 0 30 11 58 24 29 13 192 88 362 166 171 78 339 156 375 172 327 152
476 215 547 234 10 2 61 16 113 30 52 14 226 52 385 84 160 32 331 67 380 79
113 25 146 29 270 36 110 6 189 13 225 20 118 23 520 23 660 1 14 -3 57 -7 95
-11 39 -3 77 -8 85 -10 8 -2 37 -6 64 -10 43 -5 226 -36 296 -50 74 -14 179
-36 295 -60 72 -15 137 -28 146 -30 169 -34 567 -154 734 -221 69 -28 76 -31
225 -94 155 -66 570 -272 709 -352 46 -26 86 -48 88 -48 8 0 212 -136 268
-179 33 -25 145 -116 250 -201 104 -85 210 -171 235 -190 25 -19 47 -37 50
-41 9 -12 154 -124 225 -174 258 -182 623 -685 915 -1260 47 -93 109 -206 138
-249 29 -44 59 -105 68 -135 97 -347 245 -700 284 -676 8 5 6 92 -5 171 -30
215 -115 467 -183 546 -23 25 -66 128 -62 146 5 20 -20 90 -50 137 -43 69 -79
151 -140 315 -85 228 -138 324 -238 432 -32 35 -71 77 -86 93 -15 17 -57 75
-94 130 -37 55 -72 107 -79 115 -12 14 -236 298 -292 369 -14 18 -88 111 -163
205 -76 94 -137 174 -138 178 0 4 16 8 36 10 36 3 46 12 58 51 6 18 8 18 43
-3 23 -14 55 -22 92 -23 l56 -2 1 44 c0 24 -5 69 -12 100 -22 98 -25 155 -10
177 7 10 17 38 21 61 7 42 7 43 43 37 55 -8 122 -29 183 -57 30 -13 61 -26 69
-29 10 -4 4 -8 -15 -13 -82 -19 -80 -17 -83 -77 l-3 -55 63 -13 c88 -18 88
-18 138 -28 25 -5 59 -7 76 -6 29 2 33 -2 60 -59 l29 -62 81 -30 c45 -16 106
-47 137 -69 31 -21 67 -38 81 -38 32 0 86 21 86 34 0 18 -39 84 -90 153 -77
103 -107 168 -77 164 38 -5 47 2 47 34 0 47 -26 136 -46 158 -9 11 -33 23 -53
29 -20 5 -45 16 -56 24 -20 15 -20 15 1 16 44 0 82 21 94 51 13 31 21 128 11
130 -3 1 -17 3 -31 4 -14 2 -45 8 -69 13 -40 10 -133 8 -221 -2 -19 -2 -60 2
-90 9 -30 8 -105 23 -166 34 -120 22 -201 51 -210 76 -9 21 18 58 60 83 l34
20 15 -31 c9 -18 18 -43 22 -58 6 -23 11 -25 63 -26 32 0 87 -8 122 -18 227
-59 367 -73 416 -40 29 19 31 55 4 80 -26 24 -25 27 10 47 16 9 32 28 36 42 3
14 13 26 20 26 25 0 86 -29 152 -72 l63 -41 37 16 c20 9 74 26 120 37 46 11
109 30 139 42 50 18 64 20 112 10 152 -30 147 -27 150 -78 1 -25 -3 -51 -8
-58 -6 -7 -13 -29 -16 -49 -6 -32 -4 -37 14 -37 11 0 44 -9 73 -20 34 -12 90
-22 154 -25 l101 -6 11 26 c7 14 12 35 12 45 0 11 18 39 39 61 36 39 38 44 28
73 -6 17 -26 50 -44 75 -19 24 -43 61 -53 82 -21 40 -39 47 -175 64 -27 4 -65
9 -84 12 -19 2 -160 59 -315 125 -277 118 -282 119 -342 114 -53 -5 -68 -2
-123 25 -73 36 -70 52 7 38 73 -14 80 -11 70 27 -10 39 -47 76 -113 114 -45
26 -57 29 -80 20 -15 -6 -47 -15 -72 -20 -39 -9 -49 -8 -87 15 -53 31 -150 65
-185 65 -33 -1 -54 -16 -75 -58 -12 -23 -22 -32 -33 -28 -8 3 -25 9 -38 12
-34 8 -47 50 -43 140 l3 78 -77 2 c-49 0 -78 -3 -79 -10 -7 -58 9 -96 41 -96
18 0 34 -23 23 -34 -4 -3 -20 -6 -36 -6 -26 0 -29 -3 -25 -25 5 -24 3 -25 -46
-26 -28 0 -132 -2 -231 -3 -186 -3 -217 1 -248 35 -17 18 -30 20 -120 18 -112
-2 -248 8 -260 20 -4 4 -2 8 5 8 29 1 196 14 238 18 25 3 69 7 98 10 29 3 69
12 89 20 59 25 66 21 42 -26 -12 -24 -17 -45 -12 -50 5 -5 39 -11 76 -14 58
-5 68 -3 73 12 19 63 36 85 79 104 24 11 70 20 103 22 l59 2 -1 38 c-1 32 -6
42 -30 54 -21 11 -34 12 -50 5 -52 -26 -302 -31 -381 -8 -71 21 -114 25 -255
26 -79 1 -118 5 -105 10 11 5 37 9 58 9 31 1 41 6 57 34 19 30 27 67 15 67 -3
0 -61 11 -128 25 -180 36 -188 37 -368 41 -111 2 -184 -1 -221 -10 -43 -10
-59 -10 -72 -1 -16 13 -23 31 -7 21 5 -3 25 1 45 9 l37 16 -20 28 c-21 29 -52
39 -103 33 -25 -3 -26 -5 -17 -35 5 -18 9 -32 9 -33 0 -4 -112 18 -158 31 -72
21 -96 34 -212 110 -183 120 -223 132 -291 83 -52 -38 -104 -45 -179 -25 -68
17 -96 9 -105 -31 -3 -16 -5 -33 -4 -38 5 -27 -5 -42 -38 -61 -59 -33 -134
-43 -288 -36 -77 3 -248 6 -380 7 -255 1 -268 3 -311 52 -11 12 -33 25 -49 27
-39 5 -123 -11 -151 -29 -12 -9 -43 -17 -68 -19 -45 -4 -46 -3 -56 33 -5 20
-10 45 -10 54 0 30 -45 51 -93 44 -74 -11 -147 -41 -546 -223 -272 -124 -271
-124 -231 -24 11 28 20 60 20 70 0 23 -40 41 -93 41 l-42 0 3 46 c3 32 -1 50
-13 64 -27 30 -60 17 -215 -85 -97 -64 -196 -113 -207 -102 -3 4 21 33 53 65
62 62 149 115 267 165 40 16 101 49 137 72 150 98 392 195 735 295 229 67 356
111 395 135 21 13 49 44 64 70 l27 46 -41 49 c-47 56 -50 56 -208 33z m-1820
-635 c-7 -7 -12 -8 -12 -2 0 14 12 26 19 19 2 -3 -1 -11 -7 -17z m3302 -225
c4 -9 -3 -13 -19 -13 -23 0 -32 10 -20 22 10 10 34 4 39 -9z m-3110 -178 c-10
-9 -104 -58 -209 -110 -104 -52 -239 -122 -300 -155 -60 -34 -130 -70 -154
-82 -49 -22 -161 -37 -161 -21 0 6 8 13 18 16 9 3 44 22 77 42 79 47 419 214
520 255 95 39 218 80 224 74 3 -2 -4 -11 -15 -19z m327 -75 l18 -40 -62 -29
c-34 -16 -71 -38 -82 -48 -62 -56 -163 -93 -390 -143 -49 -11 -99 -22 -110
-25 -119 -30 -89 -7 77 60 78 31 159 70 180 87 41 32 340 190 347 182 2 -2 12
-22 22 -44z m-1391 -452 c0 -7 -40 -32 -88 -55 -48 -24 -181 -101 -296 -173
-115 -72 -211 -128 -215 -125 -3 3 -1 9 5 13 5 4 34 25 64 48 142 106 337 226
450 275 74 32 80 34 80 17z m6328 -316 c66 -28 120 -46 177 -58 11 -3 56 -7
100 -10 87 -6 94 -9 77 -26 -7 -7 -12 -20 -12 -30 0 -21 3 -21 -80 -7 -36 5
-99 25 -140 44 -88 40 -208 74 -273 78 -25 2 -53 10 -63 18 -15 13 -15 14 7
20 53 14 134 2 207 -29z m567 -167 l-2 -45 64 0 c40 0 63 -4 63 -11 0 -8 -30
-10 -103 -6 -139 8 -138 7 -118 63 15 42 17 44 56 44 l41 0 -1 -45z m75 -645
c0 -5 -8 -14 -18 -19 -14 -7 -23 -5 -35 10 -16 18 -16 19 18 19 19 0 35 -4 35
-10z m-679 -167 c0 -5 2 -18 5 -31 4 -22 3 -22 -27 -7 -25 13 -28 19 -18 31
12 15 38 19 40 7z m-10921 -4989 c0 -8 -14 -49 -31 -90 -22 -53 -36 -74 -47
-72 -20 4 -19 9 23 101 33 72 55 97 55 61z m1850 -2447 c0 -5 -4 -5 -10 -2 -5
3 -10 14 -10 23 0 15 2 15 10 2 5 -8 10 -19 10 -23z m205 -371 c13 -17 47 -74
76 -126 56 -102 111 -181 171 -246 38 -41 60 -115 39 -128 -13 -9 -98 62 -152
125 -100 118 -221 328 -235 411 l-6 36 41 -20 c23 -11 53 -35 66 -52z m3580
-3598 c23 -18 25 -22 11 -30 -9 -5 -24 -11 -34 -13 -9 -2 -29 -6 -44 -10 l-28
-7 15 35 c8 19 11 37 8 41 -17 17 48 3 72 -16z m281 -224 c24 -6 48 -36 38
-47 -8 -7 -94 19 -108 33 -13 13 12 32 32 25 8 -3 25 -8 38 -11z"/>
<path d="M8645 15144 c-93 -19 -98 -20 -178 -54 -86 -36 -97 -46 -102 -92 -2
-18 -4 -36 -4 -40 -1 -4 -45 -5 -98 -2 -120 8 -159 -2 -263 -64 -85 -51 -95
-62 -105 -115 -6 -33 -5 -35 27 -46 23 -8 44 -8 68 -1 19 6 36 10 37 10 1 0 7
-16 13 -35 15 -47 50 -69 94 -61 18 4 69 28 112 54 44 26 110 60 147 76 38 16
87 45 110 64 43 36 106 69 148 76 17 3 31 -4 49 -26 22 -25 33 -30 74 -30 114
0 181 73 193 209 l6 70 -54 8 c-84 13 -208 12 -274 -1z"/>
<path d="M9988 14767 c-24 -9 -28 -17 -28 -48 0 -45 9 -52 83 -68 53 -12 61
-11 80 6 12 10 23 18 25 19 9 4 -33 86 -49 94 -23 13 -76 11 -111 -3z"/>
<path d="M9636 14711 c9 -38 28 -64 57 -80 23 -12 29 -11 55 8 17 12 33 34 37
51 4 16 7 33 8 37 1 5 -35 8 -80 9 l-83 1 6 -26z"/>
<path d="M9454 14706 c-13 -33 28 -56 70 -40 26 10 20 44 -8 44 -13 0 -31 3
-40 6 -10 4 -18 0 -22 -10z"/>
<path d="M12179 14455 c-1 0 -3 -21 -4 -47 l-1 -47 58 0 58 1 0 44 c0 24 -4
45 -10 45 -7 1 -86 4 -101 4z"/>
<path d="M3317 12443 c-4 -3 0 -14 9 -24 13 -14 21 -16 45 -7 17 6 28 15 26
21 -4 13 -70 21 -80 10z"/>
<path d="M3776 10852 c6 -24 119 -250 173 -344 39 -70 58 -103 91 -163 18 -33
68 -121 110 -195 43 -74 86 -151 97 -170 33 -58 260 -444 358 -610 96 -161
359 -621 770 -1345 131 -231 268 -472 305 -535 37 -63 77 -131 87 -150 33 -58
117 -199 308 -520 215 -361 415 -708 415 -721 0 -5 4 -9 9 -9 5 0 11 -8 14
-17 7 -23 17 -41 389 -693 175 -306 151 -265 322 -557 77 -131 145 -247 150
-258 6 -11 16 -27 22 -35 6 -8 25 -40 41 -70 16 -30 108 -190 203 -354 95
-165 181 -315 191 -333 45 -79 63 -110 80 -138 11 -16 22 -37 26 -45 4 -8 28
-51 54 -95 25 -44 97 -168 159 -275 62 -107 120 -207 129 -222 39 -64 89 -156
100 -185 l13 -32 37 15 c20 8 37 18 39 22 3 9 118 219 157 287 16 28 53 93 83
145 71 123 89 153 125 219 34 62 72 126 177 305 89 150 85 144 133 226 21 36
42 72 47 80 9 15 144 249 164 285 28 49 138 241 147 255 11 19 94 165 185 327
15 26 72 126 127 222 55 97 111 196 125 221 14 25 79 140 145 255 115 202 148
260 189 334 11 19 63 111 117 205 54 94 109 191 123 216 73 130 504 869 543
930 29 44 244 410 277 470 14 25 50 88 80 140 131 226 174 300 326 565 88 155
170 296 181 315 12 19 27 47 33 63 7 15 16 27 20 27 4 0 8 4 8 9 0 5 50 96
111 202 62 107 182 316 267 464 336 586 429 747 527 910 132 220 200 365 177
379 -4 2 -2096 4 -4650 4 l-4642 1 6 -27z m1739 -687 c0 -6 -65 -113 -144
-238 l-144 -227 -47 87 c-26 49 -86 153 -133 232 -48 79 -85 147 -83 150 7 11
551 7 551 -4z m1188 6 c14 -2 -77 -173 -245 -460 -43 -73 -78 -135 -78 -138 0
-3 -9 -18 -20 -33 -11 -15 -35 -54 -53 -87 -19 -32 -102 -173 -185 -315 -155
-264 -195 -333 -244 -428 -16 -30 -31 -56 -33 -58 -11 -11 -176 270 -187 320
-3 14 10 39 252 463 75 132 151 265 168 295 97 174 242 426 250 435 6 8 331
13 375 6z m1227 -9 c0 -19 -46 -106 -100 -192 -65 -101 -510 -880 -510 -891 0
-5 -4 -9 -10 -9 -5 0 -10 -4 -10 -9 0 -8 -70 -137 -109 -201 -5 -8 -101 -175
-212 -370 -112 -195 -274 -478 -361 -629 l-157 -273 -47 65 c-72 99 -154 248
-154 279 0 35 23 82 130 268 45 80 96 170 113 200 17 30 45 79 64 108 18 29
33 55 33 58 0 2 34 62 76 132 42 70 84 141 94 157 9 17 68 116 130 220 286
480 610 1046 610 1065 0 5 8 15 19 22 27 19 401 19 401 0z m3943 1 c-2 -11
-57 -108 -225 -398 -174 -300 -258 -448 -258 -453 0 -3 -6 -13 -14 -21 -8 -9
-26 -38 -41 -66 -14 -27 -34 -63 -44 -80 -10 -16 -29 -50 -43 -75 -14 -25 -39
-69 -57 -98 -17 -29 -31 -56 -31 -59 0 -4 -6 -14 -14 -22 -7 -9 -28 -43 -46
-76 -18 -33 -72 -127 -120 -210 -98 -168 -389 -674 -429 -745 -41 -74 -441
-763 -495 -853 -26 -45 -60 -102 -74 -127 -40 -72 -473 -832 -492 -865 -10
-16 -42 -73 -72 -125 -30 -52 -99 -171 -153 -265 -54 -93 -114 -197 -132 -230
-19 -33 -38 -67 -43 -75 -5 -8 -24 -40 -41 -70 -216 -378 -435 -755 -484 -835
-69 -112 -125 -215 -125 -230 0 -6 -8 -11 -17 -12 -13 -1 -31 25 -63 90 -25
50 -110 204 -189 341 -78 138 -155 271 -169 296 -14 25 -60 104 -102 175 -331
560 -360 610 -416 710 -24 44 -207 368 -254 450 -9 17 -45 80 -79 140 -34 61
-66 117 -71 125 -27 44 -168 279 -180 300 -8 13 -21 30 -27 38 -7 7 -13 19
-13 27 0 12 240 435 342 604 21 34 38 65 38 67 0 2 45 81 100 175 55 94 100
172 100 174 0 2 21 39 46 82 26 43 133 229 239 413 106 184 241 418 300 520
128 220 282 487 317 550 14 25 88 153 165 285 77 132 161 281 188 330 26 50
52 95 56 100 11 15 3125 13 3122 -2z"/>
<path d="M1001 9432 l-55 -48 31 -13 c17 -7 46 -11 64 -9 32 3 34 6 37 43 2
22 -3 48 -10 58 -12 16 -17 14 -67 -31z"/>
<path d="M1100 7735 c-6 -19 -10 -45 -8 -57 3 -25 23 -26 85 -7 28 9 31 13 23
34 -5 12 -7 25 -4 28 5 5 -58 37 -74 37 -6 0 -16 -16 -22 -35z"/>
<path d="M13844 5371 c-19 -20 12 -81 41 -81 20 0 48 61 35 74 -11 11 -67 15
-76 7z"/>
</g>
</svg>
